<?xml version="1.0" standalone="no"?><!DOCTYPE svg PUBLIC "-//W3C//DTD SVG 1.1//EN" "http://www.w3.org/Graphics/SVG/1.1/DTD/svg11.dtd"><svg t="1655109217734" class="icon" viewBox="0 0 1024 1024" version="1.1" xmlns="http://www.w3.org/2000/svg" p-id="6924" xmlns:xlink="http://www.w3.org/1999/xlink" width="200" height="200"><defs><style type="text/css">@font-face { font-family: feedback-iconfont; src: url("//at.alicdn.com/t/font_1031158_u69w8yhxdu.woff2?t=1630033759944") format("woff2"), url("//at.alicdn.com/t/font_1031158_u69w8yhxdu.woff?t=1630033759944") format("woff"), url("//at.alicdn.com/t/font_1031158_u69w8yhxdu.ttf?t=1630033759944") format("truetype"); }
</style></defs><path d="M34.133333 375.466667h34.133334v252.586666c-13.653333 13.653333-23.893333 27.306667-34.133334 44.373334V853.333333h3.413334c20.48-191.146667 225.28-341.333333 474.453333-341.333333s453.973333 150.186667 474.453333 341.333333h3.413334v-180.906666c-10.24-13.653333-20.48-30.72-34.133334-44.373334V375.466667h34.133334V307.2H34.133333v68.266667z m716.8 0h136.533334v191.146666c-40.96-30.72-85.333333-58.026667-136.533334-78.506666V375.466667z m-204.8 0h136.533334v92.16c-44.373333-10.24-88.746667-20.48-136.533334-20.48V375.466667z m-204.8 0h136.533334v68.266666c-47.786667 3.413333-92.16 10.24-136.533334 20.48V375.466667z m-204.8 0h136.533334v112.64c-51.2 20.48-95.573333 47.786667-136.533334 78.506666V375.466667zM34.133333 204.8v68.266667h955.733334V204.8H34.133333z" p-id="6925" fill="#1296db"></path></svg>