<?xml version="1.0" standalone="no"?><!DOCTYPE svg PUBLIC "-//W3C//DTD SVG 1.1//EN" "http://www.w3.org/Graphics/SVG/1.1/DTD/svg11.dtd"><svg t="1652692198371" class="icon" viewBox="0 0 1024 1024" version="1.1" xmlns="http://www.w3.org/2000/svg" p-id="2093" xmlns:xlink="http://www.w3.org/1999/xlink" width="200" height="200"><defs><style type="text/css">@font-face { font-family: feedback-iconfont; src: url("//at.alicdn.com/t/font_1031158_u69w8yhxdu.woff2?t=1630033759944") format("woff2"), url("//at.alicdn.com/t/font_1031158_u69w8yhxdu.woff?t=1630033759944") format("woff"), url("//at.alicdn.com/t/font_1031158_u69w8yhxdu.ttf?t=1630033759944") format("truetype"); }
</style></defs><path d="M290.773333 213.333333v85.333334H426.666667v512H149.333333V213.333333h141.44m42.666667-42.666666H106.666667v682.666666h362.666666V256h-135.893333V170.666667z" p-id="2094"></path><path d="M661.333333 384v426.666667h-192V384h192m42.666667-42.666667H426.666667v512h277.333333V341.333333z" p-id="2095"></path><path d="M768 298.666667v128h106.666667v384h-170.666667V298.666667h64m42.666667-42.666667h-149.333334v597.333333h256V384h-106.666666v-128z" p-id="2096"></path><path d="M85.333333 810.666667h853.333334v42.666666H85.333333zM234.666667 384h106.666666v42.666667h-106.666666zM234.666667 533.333333h106.666666v42.666667h-106.666666zM234.666667 682.666667h106.666666v42.666666h-106.666666zM533.333333 512h64v42.666667h-64zM533.333333 640h64v42.666667h-64zM768 533.333333h42.666667v42.666667h-42.666667zM768 661.333333h42.666667v42.666667h-42.666667z" p-id="2097"></path></svg>