<?xml version="1.0" standalone="no"?><!DOCTYPE svg PUBLIC "-//W3C//DTD SVG 1.1//EN" "http://www.w3.org/Graphics/SVG/1.1/DTD/svg11.dtd"><svg t="1652709439655" class="icon" viewBox="0 0 1024 1024" version="1.1" xmlns="http://www.w3.org/2000/svg" p-id="2396" xmlns:xlink="http://www.w3.org/1999/xlink" width="200" height="200"><defs><style type="text/css">@font-face { font-family: feedback-iconfont; src: url("//at.alicdn.com/t/font_1031158_u69w8yhxdu.woff2?t=1630033759944") format("woff2"), url("//at.alicdn.com/t/font_1031158_u69w8yhxdu.woff?t=1630033759944") format("woff"), url("//at.alicdn.com/t/font_1031158_u69w8yhxdu.ttf?t=1630033759944") format("truetype"); }
</style></defs><path d="M512 76.60032c-240.46592 0-435.39968 194.93888-435.39968 435.39968 0 240.47104 194.93888 435.39968 435.39968 435.39968s435.39968-194.92864 435.39968-435.39968c0-240.46592-194.93376-435.39968-435.39968-435.39968z m0 801.14176c-201.67168 0-365.73184-164.0704-365.73184-365.74208S310.32832 146.26816 512 146.26816 877.74208 310.32832 877.74208 512 713.67168 877.74208 512 877.74208z" fill="#2279AE" p-id="2397"></path><path d="M714.40384 433.84832h-53.54496C648.95488 362.14272 587.08992 307.328 512 307.328c-75.07968 0-136.94464 54.81472-148.85888 126.52032H309.6064c-54.7584 0-99.15392 44.3904-99.15392 99.15392s44.3904 99.14368 99.15392 99.14368h142.26944c13.6704 17.88416 35.00032 29.61408 59.24864 29.61408s45.57824-11.72992 59.24352-29.61408h144.03584c54.7584 0 99.14368-44.38528 99.14368-99.14368s-44.38528-99.15392-99.14368-99.15392z" fill="#2279AE" p-id="2398"></path></svg>